<svg width="46" height="46" viewBox="0 0 46 46" fill="none" xmlns="http://www.w3.org/2000/svg">
<rect x="6.5" y="6.5" width="33" height="33" rx="16.5" stroke="#E8E8E8"/>
<path fill-rule="evenodd" clip-rule="evenodd" d="M24.7927 24.2639C23.3608 25.6958 21.0392 25.6958 19.6073 24.2639C18.1754 22.832 18.1754 20.5104 19.6073 19.0784C21.0392 17.6465 23.3608 17.6465 24.7927 19.0784C26.2246 20.5104 26.2246 22.832 24.7927 24.2639ZM25.2331 25.6469C23.2729 27.1462 20.4573 26.9995 18.6645 25.2067C16.7118 23.2541 16.7118 20.0883 18.6645 18.1356C20.6171 16.183 23.7829 16.183 25.7355 18.1356C27.5283 19.9284 27.6751 22.7438 26.1759 24.704L29.7426 28.2707L28.7998 29.2135L25.2331 25.6469Z" fill="black"/>
</svg>
