<svg width="80" height="34" viewBox="0 0 80 34" fill="none" xmlns="http://www.w3.org/2000/svg">
<rect x="46" width="34" height="34" rx="17" fill="black"/>
<path fill-rule="evenodd" clip-rule="evenodd" d="M64.7927 18.2639C63.3608 19.6958 61.0391 19.6958 59.6072 18.2639C58.1753 16.832 58.1753 14.5104 59.6072 13.0784C61.0391 11.6465 63.3608 11.6465 64.7927 13.0784C66.2246 14.5104 66.2246 16.832 64.7927 18.2639ZM65.2331 19.6469C63.2728 21.1462 60.4572 20.9995 58.6644 19.2067C56.7118 17.2541 56.7118 14.0883 58.6644 12.1356C60.617 10.183 63.7829 10.183 65.7355 12.1356C67.5282 13.9284 67.675 16.7438 66.1758 18.704L69.7425 22.2707L68.7997 23.2135L65.2331 19.6469Z" fill="white"/>
</svg>
